<svg width="45" height="46" viewBox="0 0 45 46" fill="none" xmlns="http://www.w3.org/2000/svg">
<path d="M24.0275 32.8728C23.9563 32.0615 23.2488 31.4279 22.3972 31.4279C22.0301 31.4254 21.6729 31.5463 21.3828 31.7712C21.0927 31.9961 20.8866 32.3119 20.7976 32.668L19.1979 40.4358C19.1451 40.6629 19.1177 40.8952 19.1162 41.1283C19.1162 42.88 20.5822 44.0973 22.3972 44.0973C24.2121 44.0973 25.679 42.88 25.679 41.1283C25.678 40.8477 25.6399 40.5684 25.5656 40.2978L24.0275 32.8728ZM36.1274 36.3471C35.9647 36.2045 35.7897 36.0766 35.6045 35.9648L29.4935 31.6942C28.8984 31.3206 28.263 31.3312 27.8016 31.7821C27.6002 31.9737 27.4723 32.2299 27.4402 32.5061C27.4081 32.7823 27.4737 33.061 27.6258 33.2938L32.24 39.3582C32.3454 39.5053 32.463 39.6432 32.5916 39.7704C33.3914 40.6643 35.165 40.7135 36.1397 39.7704C37.1013 38.8115 37.0898 37.103 36.1274 36.3471ZM40.7197 30.0207H34.5305C34.1306 30.0207 33.75 30.3152 33.75 30.7379C33.75 31.1607 34.0093 31.4279 34.3582 31.543L40.1968 33.3491C41.0449 33.5469 42.1875 32.791 42.1875 31.8471C42.1875 30.6465 41.5195 30.0207 40.7197 30.0207ZM11.2693 30.7344C11.2693 30.2949 10.8694 30.0172 10.4388 30.0172H4.24951C3.46992 30.0172 2.8125 30.8592 2.8125 31.8031C2.8125 32.7471 3.92168 33.5469 4.77246 33.3491L10.6989 31.543C11.0848 31.4279 11.2693 31.1739 11.2693 30.7344ZM15.5171 31.7012L9.4043 35.9533C9.21445 36.0602 9.0375 36.1884 8.87695 36.3357C8.64409 36.5522 8.45837 36.8145 8.33137 37.106C8.20438 37.3976 8.13883 37.7122 8.13883 38.0302C8.13883 38.3482 8.20438 38.6628 8.33137 38.9544C8.45837 39.2459 8.64409 39.5082 8.87695 39.7247C9.35646 40.1776 9.99103 40.4299 10.6506 40.4299C11.3101 40.4299 11.9447 40.1776 12.4242 39.7247C12.5549 39.5997 12.6726 39.4619 12.7758 39.3134L17.3936 33.2832C17.7012 32.7928 17.6502 32.1855 17.2178 31.7838C16.9898 31.5712 16.6939 31.4463 16.3826 31.4311C16.0712 31.416 15.7646 31.5117 15.5171 31.7012Z" fill="white"/>
<path d="M32.3438 11.4943C32.3438 6.59875 28.0178 3.65793 24.0645 3.31515C23.9693 3.30686 23.8734 3.31806 23.7827 3.34806C23.692 3.37807 23.6083 3.42625 23.5368 3.48967C23.4654 3.55309 23.4076 3.63041 23.367 3.71691C23.3264 3.80341 23.3038 3.89728 23.3007 3.99279C23.0265 10.6725 13.6873 13.7214 12.7653 19.6971C12.1501 23.6873 14.2287 26.0577 15.7808 27.2363C15.9452 27.3612 16.1351 27.4483 16.337 27.4912C16.5389 27.5342 16.7478 27.532 16.9488 27.4848C17.1497 27.4376 17.3378 27.3465 17.4995 27.2182C17.6611 27.0899 17.7925 26.9274 17.884 26.7424C19.8616 22.7117 24.4169 21.1622 27.5274 19.1891C31.2961 16.7985 32.3438 14.2285 32.3438 11.4943Z" stroke="white" stroke-width="2.8125" stroke-miterlimit="10" stroke-linecap="round"/>
<path d="M21.0938 8.91112C19.967 6.88964 18.4122 6.18652 15.8941 6.13114C15.8063 6.12623 15.7199 6.15567 15.6533 6.21323C15.5868 6.27079 15.5451 6.35198 15.5373 6.43964C15.4538 9.44726 12.6562 10.3815 12.6562 12.8688C12.6562 14.5713 13.13 15.4177 14.1645 16.3212M30.9771 16.2113C31.7329 17.469 32.3438 18.8551 32.3438 20.4301C32.3438 25.0461 28.611 28.6127 24.0064 28.6127C21.8754 28.6143 19.8255 27.7961 18.2812 26.3275" stroke="white" stroke-width="2.8125" stroke-miterlimit="10" stroke-linecap="round"/>
</svg>
