<svg width="40" height="41" viewBox="0 0 40 41" fill="none" xmlns="http://www.w3.org/2000/svg">
<path d="M0 9.64286C0 4.5934 4.0934 0.5 9.14286 0.5H30.8571C35.9066 0.5 40 4.5934 40 9.64286V31.3571C40 36.4066 35.9066 40.5 30.8571 40.5H0V9.64286Z" fill="#E97F91"/>
<g clip-path="url(#clip0_93_408)">
<path d="M12.5714 10.7856H17.1429L19.4286 16.4999L16.5714 18.2142C17.7954 20.696 19.804 22.7045 22.2857 23.9285L24 21.0714L29.7143 23.3571V27.9285C29.7143 28.5347 29.4735 29.1161 29.0448 29.5447C28.6162 29.9734 28.0348 30.2142 27.4286 30.2142C22.9706 29.9433 18.7659 28.0502 15.6078 24.8921C12.4497 21.734 10.5566 17.5293 10.2857 13.0714C10.2857 12.4651 10.5265 11.8838 10.9552 11.4551C11.3838 11.0265 11.9652 10.7856 12.5714 10.7856" stroke="white" stroke-width="2.28571" stroke-linecap="round" stroke-linejoin="round"/>
</g>
<defs>
<clipPath id="clip0_93_408">
<rect width="27.4286" height="27.4286" fill="white" transform="translate(6.85715 6.21423)"/>
</clipPath>
</defs>
</svg>
