<svg width="45" height="45" viewBox="0 0 45 45" fill="none" xmlns="http://www.w3.org/2000/svg">
<path d="M39.2378 22.5C39.2378 13.1836 31.6792 5.625 22.3628 5.625C13.0464 5.625 5.48779 13.1836 5.48779 22.5C5.48779 31.8164 13.0464 39.375 22.3628 39.375C31.6792 39.375 39.2378 31.8164 39.2378 22.5Z" stroke="#31210F" stroke-width="2.8125" stroke-miterlimit="10"/>
<path d="M22.3118 31.6406C22.0296 31.6404 21.754 31.5553 21.5208 31.3963C18.0667 29.0514 16.5708 27.4412 15.7464 26.4384C13.9886 24.2965 13.1466 22.0966 13.1712 19.7147C13.1984 16.9849 15.3878 14.7639 18.0517 14.7639C19.8447 14.7639 21.1279 15.6981 21.9277 16.5577C21.977 16.6098 22.0364 16.6514 22.1023 16.6797C22.1682 16.7081 22.2392 16.7228 22.3109 16.7228C22.3827 16.7228 22.4537 16.7081 22.5195 16.6797C22.5854 16.6514 22.6448 16.6098 22.6941 16.5577C23.4948 15.6981 24.7771 14.7639 26.5701 14.7639C29.2341 14.7639 31.4234 16.9849 31.4507 19.7147C31.4753 22.0966 30.6324 24.2965 28.8755 26.4384C28.0511 27.4438 26.5552 29.0514 23.1011 31.3963C22.8684 31.5549 22.5934 31.64 22.3118 31.6406Z" fill="#31210F"/>
</svg>
