<svg width="22" height="23" viewBox="0 0 22 23" fill="none" xmlns="http://www.w3.org/2000/svg">
<path d="M16 1.43701H6C3.23858 1.43701 1 3.67559 1 6.43701V16.437C1 19.1984 3.23858 21.437 6 21.437H16C18.7614 21.437 21 19.1984 21 16.437V6.43701C21 3.67559 18.7614 1.43701 16 1.43701Z" stroke="#31210F" stroke-width="2" stroke-linecap="round" stroke-linejoin="round"/>
<path d="M14.9535 11.2438C15.0778 12.0761 14.9346 12.9261 14.5441 13.6729C14.1536 14.4197 13.5357 15.0252 12.7784 15.4035C12.021 15.7818 11.1628 15.9134 10.3257 15.7798C9.48856 15.6461 8.71525 15.2539 8.11572 14.659C7.51618 14.0641 7.12096 13.2967 6.98626 12.4661C6.85156 11.6354 6.98424 10.7837 7.36543 10.0322C7.74663 9.28069 8.35692 8.66758 9.10951 8.28008C9.8621 7.89258 10.7187 7.75043 11.5574 7.87384C12.4129 7.99972 13.2049 8.3953 13.8164 9.00214C14.428 9.60899 14.8266 10.3949 14.9535 11.2438Z" stroke="#31210F" stroke-width="2" stroke-linecap="round" stroke-linejoin="round"/>
<path d="M16.4651 6.37354H16.4751" stroke="#31210F" stroke-width="2" stroke-linecap="round" stroke-linejoin="round"/>
</svg>
