<svg width="28" height="28" viewBox="0 0 28 28" fill="none" xmlns="http://www.w3.org/2000/svg">
<path d="M20.125 1.91675H8.04167C4.70495 1.91675 2 4.62169 2 7.95841V20.0417C2 23.3785 4.70495 26.0834 8.04167 26.0834H20.125C23.4617 26.0834 26.1667 23.3785 26.1667 20.0417V7.95841C26.1667 4.62169 23.4617 1.91675 20.125 1.91675Z" stroke="#E97F91" stroke-width="2.41667" stroke-linecap="round" stroke-linejoin="round"/>
<path d="M18.8604 13.7666C19.0107 14.7722 18.8376 15.7993 18.3658 16.7016C17.8939 17.604 17.1473 18.3358 16.2322 18.7929C15.3171 19.2499 14.28 19.409 13.2685 19.2475C12.257 19.086 11.3226 18.6121 10.5981 17.8932C9.8737 17.1744 9.39614 16.2471 9.23338 15.2434C9.07061 14.2397 9.23094 13.2106 9.69155 12.3025C10.1522 11.3944 10.8896 10.6536 11.799 10.1854C12.7083 9.71714 13.7434 9.54537 14.7568 9.6945C15.7905 9.84661 16.7475 10.3246 17.4865 11.0579C18.2254 11.7911 18.7071 12.7408 18.8604 13.7666Z" stroke="#E97F91" stroke-width="2.41667" stroke-linecap="round" stroke-linejoin="round"/>
<path d="M20.687 7.88159H20.6982" stroke="#E97F91" stroke-width="2.41667" stroke-linecap="round" stroke-linejoin="round"/>
</svg>
