<svg width="45" height="45" viewBox="0 0 45 45" fill="none" xmlns="http://www.w3.org/2000/svg">
<path d="M36.5625 11.25C34.9014 11.6235 33.3281 12.0357 31.8428 12.4761C28.2832 13.5308 25.207 14.8623 22.5791 16.1367C20.8828 16.9603 20.2764 17.3241 18.0527 18.6179C12.9199 21.5789 9.84375 25.4206 9.84375 31.1695C9.84375 37.6655 14.7305 42.1875 22.5 42.1875C30.2695 42.1875 35.1562 37.2823 35.1562 30.7863C35.1562 24.2903 29.7949 19.7965 36.5625 11.25Z" stroke="#31210F" stroke-width="2.8125" stroke-linecap="round" stroke-linejoin="round"/>
<path d="M23.2031 15.837C21.4726 13.464 19.8457 12.4365 18.5713 11.7422C14.291 9.41309 8.4375 8.4375 8.4375 8.4375C12.085 12.2783 11.707 16.3564 11.25 19.6875C11.25 19.6875 10.9099 22.5773 11.4179 24.8212" stroke="#31210F" stroke-width="2.8125" stroke-linecap="round" stroke-linejoin="round"/>
<path d="M32.6952 12.23C31.3373 9.01758 29.5312 5.625 29.5312 5.625C29.5312 5.625 23.9659 5.625 17.6053 11.25M22.2784 7.69658C19.4457 4.02627 15.4687 2.8125 15.4687 2.8125C14.1239 4.64063 12.9383 7.3459 12.4039 9.33135" stroke="#31210F" stroke-width="2.8125" stroke-linecap="round" stroke-linejoin="round"/>
</svg>
