<svg width="46" height="45" viewBox="0 0 46 45" fill="none" xmlns="http://www.w3.org/2000/svg">
<g clip-path="url(#clip0_134_1955)">
<path d="M23.3445 23.1073L19.5195 13.1634C19.4621 13.0142 19.3609 12.8858 19.2291 12.7953C19.0973 12.7048 18.9411 12.6563 18.7812 12.6563C18.6214 12.6563 18.4652 12.7048 18.3334 12.7953C18.2016 12.8858 18.1004 13.0142 18.043 13.1634L14.218 23.1073C14.1782 23.2106 14.1173 23.3045 14.039 23.3827C13.9607 23.461 13.8669 23.522 13.7636 23.5617L3.81963 27.3867C3.6704 27.4441 3.54208 27.5454 3.45156 27.6772C3.36105 27.809 3.3126 27.9651 3.3126 28.125C3.3126 28.2849 3.36105 28.441 3.45156 28.5728C3.54208 28.7046 3.6704 28.8059 3.81963 28.8633L13.7636 32.6883C13.8669 32.728 13.9607 32.789 14.039 32.8673C14.1173 32.9455 14.1782 33.0394 14.218 33.1427L18.043 43.0866C18.1004 43.2358 18.2016 43.3642 18.3334 43.4547C18.4652 43.5452 18.6214 43.5937 18.7812 43.5937C18.9411 43.5937 19.0973 43.5452 19.2291 43.4547C19.3609 43.3642 19.4621 43.2358 19.5195 43.0866L23.3445 33.1427C23.3843 33.0394 23.4452 32.9455 23.5235 32.8673C23.6018 32.789 23.6956 32.728 23.7989 32.6883L33.7429 28.8633C33.8921 28.8059 34.0204 28.7046 34.1109 28.5728C34.2015 28.441 34.2499 28.2849 34.2499 28.125C34.2499 27.9651 34.2015 27.809 34.1109 27.6772C34.0204 27.5454 33.8921 27.4441 33.7429 27.3867L23.7989 23.5617C23.6956 23.522 23.6018 23.461 23.5235 23.3827C23.4452 23.3045 23.3843 23.2106 23.3445 23.1073ZM9.99219 5.97656L8.23438 1.40625L6.47656 5.97656L1.90625 7.73438L6.47656 9.49219L8.23438 14.0625L9.99219 9.49219L14.5625 7.73438L9.99219 5.97656ZM38.0003 10.3122L35.6562 4.21875L33.3122 10.3122L27.2188 12.6562L33.3122 15.0003L35.6562 21.0938L38.0003 15.0003L44.0938 12.6562L38.0003 10.3122Z" stroke="#31210F" stroke-width="2.8125" stroke-linecap="round" stroke-linejoin="round"/>
</g>
<defs>
<clipPath id="clip0_134_1955">
<rect width="45" height="45" fill="white" transform="translate(0.5)"/>
</clipPath>
</defs>
</svg>
